<svg width="24" height="24" viewBox="0 0 24 24" fill="none" xmlns="http://www.w3.org/2000/svg">
<path d="M16.9995 17.6387V18.1456C16.9995 19.0826 16.6535 19.9796 16.0255 20.6716C15.8275 20.8896 15.5565 20.9996 15.2845 20.9996C15.0445 20.9996 14.8045 20.9136 14.6135 20.7396C14.2045 20.3686 14.1735 19.7366 14.5445 19.3276C14.8385 19.0046 15.0005 18.5837 15.0005 18.1447V17.6376C15.0005 16.3936 14.1635 15.3167 12.9645 15.0197C12.7995 14.9777 12.6265 14.9996 12.4875 15.0786C10.6305 16.0986 8.36151 16.0936 6.52051 15.0836C6.37351 14.9996 6.1995 14.9776 6.0365 15.0206C4.8375 15.3176 4.00049 16.3947 4.00049 17.6387V18.1456C4.00049 18.5836 4.16248 19.0036 4.45648 19.3286C4.82748 19.7376 4.79651 20.3706 4.38751 20.7416C3.97651 21.1116 3.34549 21.0816 2.97449 20.6726C2.34649 19.9796 2.00049 19.0826 2.00049 18.1466V17.6396C2.00049 15.4746 3.4615 13.5996 5.5545 13.0796C6.2075 12.9196 6.91349 13.0117 7.49249 13.3357C8.72849 14.0157 10.2645 14.0207 11.5175 13.3307C12.0885 13.0127 12.7945 12.9186 13.4475 13.0796C15.5385 13.5986 16.9995 15.4737 16.9995 17.6387ZM18.4455 13.0786C17.9105 12.9486 17.3665 13.2716 17.2345 13.8076C17.1025 14.3436 17.4285 14.8867 17.9645 15.0197C19.1635 15.3167 20.0005 16.3936 20.0005 17.6376V18.1447C20.0005 18.5827 19.8385 19.0036 19.5445 19.3276C19.1735 19.7366 19.2045 20.3686 19.6135 20.7396C19.8045 20.9136 20.0455 20.9996 20.2845 20.9996C20.5565 20.9996 20.8275 20.8896 21.0255 20.6716C21.6535 19.9796 21.9995 19.0816 21.9995 18.1456V17.6387C21.9995 15.4737 20.5385 13.5986 18.4455 13.0786ZM4.49951 7.99963C4.49951 5.24263 6.74251 2.99963 9.49951 2.99963C12.2565 2.99963 14.4995 5.24263 14.4995 7.99963C14.4995 10.7566 12.2565 12.9996 9.49951 12.9996C6.74251 12.9996 4.49951 10.7566 4.49951 7.99963ZM6.49951 7.99963C6.49951 9.65363 7.84551 10.9996 9.49951 10.9996C11.1535 10.9996 12.4995 9.65363 12.4995 7.99963C12.4995 6.34563 11.1535 4.99963 9.49951 4.99963C7.84551 4.99963 6.49951 6.34563 6.49951 7.99963ZM19.4995 7.99963C19.4995 5.48163 17.6185 3.35057 15.1235 3.03857C14.5745 2.97557 14.0755 3.35862 14.0075 3.90662C13.9395 4.45462 14.3275 4.95458 14.8765 5.02258C16.3725 5.20958 17.5005 6.48863 17.5005 7.99963C17.5005 8.91463 17.0905 9.76867 16.3755 10.3417C15.9445 10.6877 15.8755 11.3166 16.2205 11.7466C16.4175 11.9936 16.7085 12.1216 17.0015 12.1216C17.2205 12.1216 17.4415 12.0496 17.6265 11.9016C18.8165 10.9476 19.4995 9.52463 19.4995 7.99963Z" fill="#41416E"/>
</svg>
